<svg xmlns="http://www.w3.org/2000/svg" width="40" height="41" viewBox="0 0 40 41" fill="none">
  <path d="M6.00122 29.0294H2.00177C0.897856 29.0306 0.0032128 29.9252 0.00204109 31.0292V39.6946C0.00204109 39.8714 0.0722666 40.0409 0.197269 40.1659C0.322271 40.2909 0.491811 40.3612 0.668591 40.3612H7.33432C7.5111 40.3612 7.68064 40.2909 7.80564 40.1659C7.93064 40.0409 8.00087 39.8714 8.00087 39.6946V31.0292C7.9997 29.9252 7.10513 29.0307 6.00122 29.0294ZM6.66777 39.0281H1.33514V31.0292C1.33537 30.8525 1.40567 30.683 1.53062 30.5581C1.65557 30.4331 1.82498 30.3628 2.00169 30.3626H6.00114C6.17785 30.3628 6.34726 30.4331 6.47221 30.5581C6.59717 30.683 6.66746 30.8525 6.66769 31.0292L6.66777 39.0281ZM16.6664 19.6974H12.667C11.563 19.6986 10.6684 20.5932 10.6672 21.6972V39.6947C10.6672 39.8715 10.7374 40.041 10.8625 40.166C10.9875 40.291 11.157 40.3612 11.3338 40.3612H17.9995C18.1763 40.3612 18.3458 40.291 18.4708 40.166C18.5958 40.041 18.6661 39.8715 18.6661 39.6947V21.6972C18.6649 20.5932 17.7703 19.6986 16.6664 19.6974ZM17.333 39.0281H12.0003V21.6972C12.0006 21.5204 12.0708 21.351 12.1958 21.2261C12.3208 21.1011 12.4902 21.0308 12.6669 21.0306H16.6663C16.843 21.0308 17.0124 21.1011 17.1374 21.2261C17.2624 21.351 17.3326 21.5204 17.3329 21.6972L17.333 39.0281ZM27.3316 23.6969H23.3321C22.2282 23.6981 21.3336 24.5927 21.3324 25.6966V39.6947C21.3324 39.8715 21.4026 40.041 21.5276 40.166C21.6526 40.291 21.8222 40.3612 21.999 40.3612H28.6647C28.8415 40.3612 29.011 40.291 29.136 40.166C29.261 40.041 29.3312 39.8715 29.3312 39.6947V25.6966C29.3301 24.5926 28.4355 23.6981 27.3316 23.6969ZM27.9982 39.0281H22.6656V25.6966C22.6658 25.5199 22.7361 25.3505 22.8611 25.2255C22.986 25.1006 23.1554 25.0303 23.3321 25.0301H27.3316C27.5083 25.0303 27.6777 25.1006 27.8027 25.2255C27.9276 25.3505 27.9979 25.5199 27.9981 25.6966L27.9982 39.0281ZM37.9968 18.3643H33.9974C32.8935 18.3654 31.9988 19.2601 31.9977 20.364V39.6947C31.9977 39.8715 32.0679 40.041 32.1929 40.166C32.3179 40.291 32.4874 40.3612 32.6642 40.3612H39.3299C39.5067 40.3612 39.6763 40.291 39.8013 40.166C39.9263 40.041 39.9965 39.8715 39.9965 39.6947V20.364C39.9953 19.2601 39.1008 18.3654 37.9968 18.3643ZM38.6634 39.0281H33.3308V20.364C33.331 20.1873 33.4013 20.0179 33.5262 19.8929C33.6512 19.768 33.8206 19.6977 33.9973 19.6974H37.9968C38.1735 19.6977 38.3429 19.768 38.4678 19.8929C38.5928 20.0179 38.6631 20.1873 38.6633 20.364V39.0281H38.6634ZM33.0115 8.3514C34.2327 9.7259 36.234 10.0901 37.8611 9.23378C39.4881 8.37749 40.3211 6.52165 39.8796 4.73682C39.438 2.95199 37.8357 1.69872 35.9971 1.69981C35.3399 1.69927 34.6926 1.86085 34.1128 2.17022C33.5329 2.4796 33.0383 2.92722 32.6727 3.47344C32.3072 4.01965 32.082 4.64759 32.0172 5.30163C31.9523 5.95566 32.0498 6.6156 32.3009 7.22296L28.3175 9.71286C27.9628 9.31079 27.5305 8.98453 27.0466 8.75363C26.5627 8.52273 26.0372 8.39197 25.5015 8.36918C24.9658 8.34639 24.431 8.43204 23.9292 8.62101C23.4275 8.80997 22.969 9.09834 22.5815 9.46883L18.2186 6.1967C19.141 4.41265 18.597 2.22123 16.9474 1.0756C15.2978 -0.0700224 13.0543 0.185568 11.7047 1.67294C10.3552 3.16032 10.3181 5.41798 11.6182 6.94878L6.02973 13.5899C4.23779 12.5355 1.93678 13.0301 0.736238 14.7276C-0.464301 16.4251 -0.16403 18.7594 1.42716 20.0977C3.01835 21.436 5.36951 21.332 6.83626 19.8583C8.30302 18.3847 8.39597 16.033 7.05014 14.4481L12.6386 7.80702C14.173 8.71979 16.1279 8.49685 17.4174 7.26202L21.7802 10.5342C20.9311 12.1789 21.3219 14.1914 22.7247 15.3989C24.1276 16.6064 26.1759 16.6931 27.6758 15.6085C29.1758 14.524 29.7353 12.5518 29.0283 10.8411L33.0115 8.3514ZM35.9971 3.03299C37.4697 3.03299 38.6634 4.22673 38.6634 5.69927C38.6617 7.1711 37.469 8.3639 35.9971 8.36554C34.5246 8.36554 33.3308 7.1718 33.3308 5.69927C33.3308 4.22673 34.5245 3.03299 35.9971 3.03299ZM4.00149 19.6974C2.52896 19.6974 1.33522 18.5037 1.33522 17.0312C1.33522 15.5586 2.52896 14.3649 4.00149 14.3649C5.47403 14.3649 6.66777 15.5586 6.66777 17.0312C6.66605 18.503 5.47332 19.6957 4.00149 19.6974ZM14.6667 7.03244C13.1941 7.03244 12.0004 5.8387 12.0004 4.36617C12.0004 2.89363 13.1941 1.69989 14.6667 1.69989C16.1392 1.69989 17.333 2.89363 17.333 4.36617C17.3313 5.838 16.1385 7.0308 14.6667 7.03244ZM25.3319 15.0313C23.8593 15.0313 22.6656 13.8376 22.6656 12.3651C22.6656 10.8925 23.8593 9.6988 25.3319 9.6988C26.8044 9.6988 27.9981 10.8925 27.9981 12.3651C27.9965 13.8369 26.8038 15.0297 25.3319 15.0313Z" fill="white"/>
</svg>