<svg xmlns="http://www.w3.org/2000/svg" width="36" height="41" viewBox="0 0 36 41" fill="none">
  <path d="M24.4173 7.52804H32.1673C32.5007 7.52804 32.834 7.1947 32.834 6.86137C32.834 6.52804 32.5007 6.1947 32.1673 6.1947H24.334C24.0007 6.1947 23.6673 6.52804 23.6673 6.86137C23.7507 7.1947 24.0007 7.52804 24.4173 7.52804ZM24.4173 10.1114H35.0007C35.334 10.1114 35.6673 9.77804 35.6673 9.4447C35.6673 9.11137 35.334 8.77804 35.0007 8.77804H24.4173C24.084 8.77804 23.7507 9.11137 23.7507 9.4447C23.7507 9.86137 24.0007 10.1114 24.4173 10.1114ZM15.9173 5.6947C13.6673 5.6947 11.9173 6.77804 11.834 9.6947C11.834 11.8614 20.0007 11.8614 20.0007 9.6947C19.9173 6.77804 18.1673 5.6947 15.9173 5.6947Z" fill="white"/>
  <path d="M15.918 3.86133C16.8845 3.86133 17.668 3.07783 17.668 2.11133C17.668 1.14483 16.8845 0.361328 15.918 0.361328C14.9515 0.361328 14.168 1.14483 14.168 2.11133C14.168 3.07783 14.9515 3.86133 15.918 3.86133Z" fill="white"/>
  <path d="M24.4173 22.1114H32.1673C32.5007 22.1114 32.834 21.7781 32.834 21.4447C32.834 21.1114 32.5007 20.7781 32.1673 20.7781H24.334C24.0007 20.7781 23.6673 21.1114 23.6673 21.4447C23.6673 21.7781 24.0007 22.1114 24.4173 22.1114ZM35.0007 23.3614H24.4173C24.084 23.3614 23.7507 23.6947 23.7507 24.0281C23.7507 24.3614 24.084 24.6947 24.4173 24.6947H35.0007C35.334 24.6947 35.6673 24.3614 35.6673 24.0281C35.6673 23.6947 35.334 23.3614 35.0007 23.3614ZM15.9173 20.2781C13.6673 20.2781 11.9173 21.3614 11.834 24.2781C11.834 26.4447 20.0007 26.4447 20.0007 24.2781C19.9173 21.3614 18.1673 20.2781 15.9173 20.2781Z" fill="white"/>
  <path d="M15.918 18.3613C16.8845 18.3613 17.668 17.5778 17.668 16.6113C17.668 15.6448 16.8845 14.8613 15.918 14.8613C14.9515 14.8613 14.168 15.6448 14.168 16.6113C14.168 17.5778 14.9515 18.3613 15.918 18.3613Z" fill="white"/>
  <path d="M24.4173 36.6113H32.1673C32.5007 36.6113 32.834 36.278 32.834 35.9446C32.834 35.6113 32.5007 35.278 32.1673 35.278H24.334C24.0007 35.278 23.6673 35.6113 23.6673 35.9446C23.7507 36.3613 24.0007 36.6113 24.4173 36.6113ZM35.0007 37.9446H24.4173C24.084 37.9446 23.7507 38.278 23.7507 38.6113C23.7507 38.9446 24.084 39.278 24.4173 39.278H35.0007C35.334 39.278 35.6673 38.9446 35.6673 38.6113C35.6673 38.1946 35.334 37.9446 35.0007 37.9446ZM15.9173 34.778C13.6673 34.778 11.9173 35.8613 11.834 38.778C11.834 40.9446 20.0007 40.9446 20.0007 38.778C19.9173 35.8613 18.1673 34.778 15.9173 34.778Z" fill="white"/>
  <path d="M15.918 32.9447C16.8845 32.9447 17.668 32.1612 17.668 31.1947C17.668 30.2282 16.8845 29.4447 15.918 29.4447C14.9515 29.4447 14.168 30.2282 14.168 31.1947C14.168 32.1612 14.9515 32.9447 15.918 32.9447Z" fill="white"/>
  <path d="M4.33398 9.86137C6.50065 9.86137 8.33398 8.11137 8.33398 5.86137C8.33398 5.52804 8.00065 5.1947 7.66732 5.1947C7.33398 5.1947 7.00065 5.52804 7.00065 5.86137C7.00065 7.36137 5.83398 8.52804 4.33398 8.52804C2.83398 8.52804 1.66732 7.36137 1.66732 5.86137C1.66732 4.36137 2.83398 3.1947 4.33398 3.1947C4.66732 3.1947 5.00065 2.86137 5.00065 2.52804C5.00065 2.1947 4.66732 1.9447 4.33398 1.9447C2.16732 1.9447 0.333984 3.6947 0.333984 5.9447C0.333984 8.11137 2.16732 9.86137 4.33398 9.86137Z" fill="white"/>
  <path d="M7.83398 1.9447L4.33398 5.52804L3.58398 4.6947C3.33398 4.4447 2.91732 4.4447 2.66732 4.6947C2.33398 5.02804 2.33398 5.36137 2.66732 5.6947L3.83398 6.86137C4.00065 7.02804 4.16732 7.11137 4.33398 7.11137C4.50065 7.11137 4.66732 7.02804 4.75065 6.86137L8.83398 2.86137C9.08398 2.61137 9.08398 2.1947 8.83398 1.9447C8.50065 1.6947 8.16732 1.6947 7.83398 1.9447ZM4.33398 24.4447C6.50065 24.4447 8.33398 22.6947 8.33398 20.4447C8.33398 20.1114 8.00065 19.778 7.66732 19.778C7.33398 19.778 7.00065 20.1114 7.00065 20.4447C7.00065 21.9447 5.83398 23.1114 4.33398 23.1114C2.83398 23.1114 1.66732 21.9447 1.66732 20.4447C1.66732 18.9447 2.83398 17.778 4.33398 17.778C4.66732 17.778 5.00065 17.4447 5.00065 17.1114C5.00065 16.778 4.66732 16.4447 4.33398 16.4447C2.16732 16.4447 0.333984 18.1947 0.333984 20.4447C0.333984 22.6114 2.16732 24.4447 4.33398 24.4447Z" fill="white"/>
  <path d="M7.83398 16.4447L4.25065 20.028L3.50065 19.278C3.25065 19.028 2.83398 19.028 2.58398 19.278C2.33398 19.528 2.33398 19.9447 2.58398 20.1947L3.83398 21.4447C3.91732 21.528 4.08398 21.6114 4.33398 21.6114C4.50065 21.6114 4.66732 21.528 4.83398 21.4447L8.83398 17.4447C9.08398 17.1947 9.08398 16.778 8.83398 16.528C8.50065 16.1947 8.16732 16.1947 7.83398 16.4447ZM7.66732 34.3614C7.33398 34.3614 7.00065 34.6947 7.00065 35.028C7.00065 36.528 5.83398 37.6947 4.33398 37.6947C2.83398 37.6947 1.66732 36.528 1.66732 35.028C1.66732 33.528 2.83398 32.3614 4.33398 32.3614C4.66732 32.3614 5.00065 32.028 5.00065 31.6947C5.00065 31.3614 4.66732 31.028 4.33398 31.028C2.16732 31.028 0.333984 32.778 0.333984 35.028C0.333984 37.1947 2.08398 39.028 4.33398 39.028C6.50065 39.028 8.33398 37.278 8.33398 35.028C8.25065 34.6113 8.00065 34.3614 7.66732 34.3614Z" fill="white"/>
  <path d="M7.83398 31.0281L4.25065 34.6114L3.50065 33.8614C3.25065 33.6114 2.83398 33.6114 2.58398 33.8614C2.33398 34.1114 2.33398 34.5281 2.58398 34.7781L3.83398 35.9447C4.00065 36.1114 4.16732 36.1947 4.33398 36.1947C4.50065 36.1947 4.66732 36.1114 4.83398 36.0281L8.83398 32.0281C9.08398 31.7781 9.08398 31.3614 8.83398 31.1114C8.50065 30.7781 8.16732 30.7781 7.83398 31.0281Z" fill="white"/>
</svg>