<svg xmlns="http://www.w3.org/2000/svg" width="33" height="33" viewBox="0 0 33 33" fill="none">
  <g clip-path="url(#clip0_1626_1576)">
    <path d="M32.5 16.9419C32.5 8.10289 25.333 0.941895 16.5 0.941895C7.661 0.941895 0.5 8.10289 0.5 16.9419C0.5 24.9259 6.349 31.5459 14 32.7449V21.5679H9.937V16.9429H14V13.4159C14 9.40689 16.385 7.19289 20.041 7.19289C21.792 7.19289 23.625 7.50489 23.625 7.50489V11.4419H21.604C19.62 11.4419 19 12.6769 19 13.9419V16.9419H23.437L22.724 21.5669H19V32.7439C26.645 31.5449 32.5 24.9249 32.5 16.9409V16.9419Z" fill="white"/>
  </g>
  <defs>
    <clipPath id="clip0_1626_1576">
      <rect width="32" height="32" fill="white" transform="translate(0.5 0.941895)"/>
    </clipPath>
  </defs>
</svg>