<svg xmlns="http://www.w3.org/2000/svg" width="37" height="29" viewBox="0 0 37 29" fill="none">
  <path d="M15.3988 11.9C15.3988 11.9 14.0141 11.8929 12.6059 12.5935C11.2047 13.2941 9.76562 14.8207 9.76562 17.5403V27.5521C9.76625 27.7176 9.83228 27.8762 9.94933 27.9932C10.0664 28.1103 10.2249 28.1763 10.3905 28.177H19.1715C19.3371 28.1763 19.4956 28.1103 19.6127 27.9932C19.7297 27.8762 19.7958 27.7176 19.7964 27.5521C19.7967 27.4697 19.7808 27.3881 19.7496 27.3119C19.7183 27.2357 19.6724 27.1664 19.6144 27.1079C19.5563 27.0494 19.4874 27.003 19.4114 26.9712C19.3354 26.9394 19.2539 26.9228 19.1715 26.9225H11.0295V17.5261C11.0295 15.2302 12.0852 14.2598 13.1881 13.6917C14.2911 13.1403 15.4106 13.1332 15.4106 13.1332H21.6828C21.6828 13.1332 22.8023 13.1403 23.9053 13.6917C25.0082 14.2432 26.0639 15.2184 26.0639 17.5261V26.9225H24.1822C24.0998 26.9228 24.0183 26.9394 23.9423 26.9712C23.8664 27.003 23.7974 27.0494 23.7394 27.1079C23.6814 27.1664 23.6354 27.2357 23.6042 27.3119C23.5729 27.3881 23.557 27.4697 23.5573 27.5521C23.558 27.7176 23.624 27.8762 23.741 27.9932C23.8581 28.1103 24.0167 28.1763 24.1822 28.177H26.6911C26.7734 28.1773 26.8551 28.1613 26.9313 28.1301C27.0075 28.0989 27.0768 28.0529 27.1353 27.9949C27.1937 27.9369 27.2402 27.8679 27.272 27.7919C27.3038 27.716 27.3203 27.6345 27.3207 27.5521V17.5403C27.3207 14.8184 25.8698 13.3036 24.4567 12.5935C23.0556 11.8929 21.6638 11.9 21.6638 11.9H15.3988Z" fill="black"/>
  <path d="M21.6708 27.0243C21.5881 27.024 21.5061 27.04 21.4295 27.0716C21.353 27.1031 21.2835 27.1495 21.2249 27.208C21.1664 27.2665 21.1201 27.336 21.0885 27.4126C21.057 27.4891 21.0409 27.5711 21.0412 27.6539C21.0416 27.7362 21.0581 27.8177 21.0899 27.8937C21.1217 27.9697 21.1682 28.0387 21.2266 28.0967C21.2851 28.1547 21.3544 28.2006 21.4306 28.2319C21.5068 28.2631 21.5885 28.279 21.6708 28.2787C21.8364 28.2781 21.9949 28.2121 22.112 28.095C22.229 27.978 22.2951 27.8194 22.2957 27.6539C22.296 27.5715 22.2801 27.4899 22.2488 27.4137C22.2176 27.3374 22.1717 27.2681 22.1136 27.2097C22.0556 27.1512 21.9867 27.1047 21.9107 27.0729C21.8347 27.0411 21.7532 27.0246 21.6708 27.0243ZM14.7596 19.4503C14.6015 19.455 14.451 19.5193 14.3383 19.6302C14.28 19.6885 14.2337 19.7576 14.2021 19.8338C14.1705 19.9099 14.1543 19.9916 14.1543 20.074C14.1543 20.1564 14.1705 20.238 14.2021 20.3142C14.2337 20.3903 14.28 20.4595 14.3383 20.5178L17.4625 23.642C17.5208 23.7004 17.59 23.7466 17.6661 23.7782C17.7423 23.8098 17.8239 23.826 17.9063 23.826C17.9888 23.826 18.0704 23.8098 18.1465 23.7782C18.2227 23.7466 18.2919 23.7004 18.3501 23.642C18.4665 23.5246 18.5317 23.3659 18.5317 23.2006C18.5317 23.0353 18.4665 22.8766 18.3501 22.7592L15.2259 19.6349C15.1652 19.5752 15.0929 19.5284 15.0136 19.4975C14.9342 19.4666 14.8494 19.4521 14.7643 19.4551L14.7596 19.4503Z" fill="black"/>
  <path d="M22.1681 17.5332C22.0087 17.549 21.8613 17.6252 21.7563 17.7462L17.3776 22.764C17.2688 22.8891 17.2139 23.0522 17.225 23.2176C17.2361 23.383 17.3122 23.5374 17.4368 23.6468C17.5616 23.7559 17.7245 23.8112 17.8899 23.8006C18.0553 23.7899 18.2098 23.7142 18.3196 23.59L22.6983 18.5723C22.8071 18.4472 22.862 18.2841 22.8509 18.1186C22.8398 17.9532 22.7637 17.7989 22.6391 17.6894C22.575 17.6335 22.5002 17.5913 22.4192 17.5653C22.3382 17.5392 22.2528 17.5299 22.1681 17.5379V17.5332ZM18.5468 0.633789C17.218 0.640013 15.9453 1.17067 15.0056 2.11033C14.066 3.05 13.5353 4.32267 13.5291 5.65154C13.5291 8.42077 15.78 10.6693 18.5468 10.6693C21.3161 10.6693 23.5646 8.4184 23.5646 5.65154C23.5646 2.88231 21.3137 0.633789 18.5468 0.633789ZM18.5468 1.88586C20.6297 1.88586 22.3102 3.5616 22.3102 5.64917C22.3102 7.73201 20.6344 9.41249 18.5468 9.41249C16.464 9.41249 14.7835 7.73675 14.7835 5.64917C14.7835 3.62314 16.4261 1.88586 18.5468 1.88586ZM4.77169 15.0243C4.77169 15.0243 3.70187 15.0172 2.61311 15.5616C1.52435 16.106 0.390625 17.3249 0.390625 19.4196V25.6681C0.390625 26.0137 0.669915 26.2953 1.01548 26.2977H10.4119C10.5789 26.2977 10.739 26.2314 10.8571 26.1133C10.9752 25.9952 11.0415 25.8351 11.0415 25.6681V17.5261C11.0415 16.9131 11.1267 16.4042 11.264 15.9592C11.2892 15.8767 11.2972 15.7898 11.2873 15.7041C11.2775 15.6184 11.25 15.5356 11.2067 15.4609C11.1634 15.3863 11.1051 15.3214 11.0356 15.2703C10.966 15.2192 10.8866 15.183 10.8025 15.164C10.4711 15.0764 10.4143 15.022 9.78944 15.022L4.77169 15.0243ZM4.77169 16.2764H9.76577C9.76577 16.2764 9.92435 16.3001 9.96459 16.3048C9.88885 16.6977 9.78944 17.0669 9.78944 17.5308V25.0575H1.64743V19.4243C1.64743 17.7533 2.38826 17.093 3.17642 16.7024C3.96459 16.3119 4.77642 16.2953 4.77642 16.2953L4.77169 16.2764ZM7.2569 6.26693C5.18826 6.26693 3.49358 7.95687 3.49358 10.0302C3.49358 12.0989 5.18352 13.7936 7.2569 13.7936C9.33027 13.7936 11.0202 12.1036 11.0202 10.0302C11.0202 7.9616 9.33027 6.26693 7.2569 6.26693ZM7.2569 7.519C8.64861 7.519 9.76577 8.63379 9.76577 10.0279C9.76577 11.4196 8.65098 12.5367 7.2569 12.5367C5.86281 12.5367 4.74802 11.422 4.74802 10.0279C4.74802 8.63616 5.86281 7.519 7.2569 7.519ZM26.1918 15.1663C26.1074 15.185 26.0279 15.221 25.9581 15.272C25.8884 15.3231 25.83 15.388 25.7866 15.4627C25.7432 15.5375 25.7158 15.6204 25.7061 15.7063C25.6964 15.7921 25.7047 15.8791 25.7303 15.9616C25.8675 16.4066 25.9575 16.9154 25.9575 17.5285V25.6705C25.9575 26.016 26.2368 26.2977 26.5823 26.3001H35.9788C36.1458 26.3001 36.3059 26.2337 36.424 26.1157C36.542 25.9976 36.6084 25.8375 36.6084 25.6705V19.422C36.6084 17.3344 35.4723 16.1083 34.3835 15.564C33.2948 15.0196 32.2273 15.0267 32.2273 15.0267H27.2096C26.5823 15.0267 26.5184 15.0977 26.1918 15.1687V15.1663ZM27.2309 16.2764H32.2249C32.2249 16.2764 33.0297 16.2882 33.8202 16.6835C34.6107 17.0788 35.3539 17.7415 35.3539 19.4054V25.0385H27.2119V17.5119C27.2119 17.048 27.1078 16.6811 27.032 16.2859C27.0723 16.2835 27.2356 16.2575 27.2356 16.2575L27.2309 16.2764ZM29.7421 6.26693C27.6735 6.26693 25.9788 7.95687 25.9788 10.0302C25.9788 12.0989 27.6687 13.7936 29.7421 13.7936C31.8107 13.7936 33.5054 12.1036 33.5054 10.0302C33.5054 7.9616 31.8155 6.26693 29.7421 6.26693ZM29.7421 7.519C31.1338 7.519 32.251 8.63379 32.251 10.0279C32.251 11.4196 31.1362 12.5367 29.7421 12.5367C28.3504 12.5367 27.2332 11.422 27.2332 10.0279C27.2332 8.63616 28.348 7.519 29.7421 7.519Z" fill="black"/>
</svg>