<svg xmlns="http://www.w3.org/2000/svg" width="25" height="25" viewBox="0 0 25 25" fill="none">
  <path d="M8.3 2.94189H16.7C19.9 2.94189 22.5 5.54189 22.5 8.74189V17.1419C22.5 18.6802 21.8889 20.1554 20.8012 21.2431C19.7135 22.3308 18.2383 22.9419 16.7 22.9419H8.3C5.1 22.9419 2.5 20.3419 2.5 17.1419V8.74189C2.5 7.20364 3.11107 5.72839 4.19878 4.64068C5.28649 3.55296 6.76174 2.94189 8.3 2.94189ZM8.1 4.94189C7.14522 4.94189 6.22955 5.32118 5.55442 5.99631C4.87928 6.67144 4.5 7.58712 4.5 8.54189V17.3419C4.5 19.3319 6.11 20.9419 8.1 20.9419H16.9C17.8548 20.9419 18.7705 20.5626 19.4456 19.8875C20.1207 19.2123 20.5 18.2967 20.5 17.3419V8.54189C20.5 6.55189 18.89 4.94189 16.9 4.94189H8.1ZM17.75 6.44189C18.0815 6.44189 18.3995 6.57359 18.6339 6.80801C18.8683 7.04243 19 7.36037 19 7.69189C19 8.02342 18.8683 8.34136 18.6339 8.57578C18.3995 8.8102 18.0815 8.94189 17.75 8.94189C17.4185 8.94189 17.1005 8.8102 16.8661 8.57578C16.6317 8.34136 16.5 8.02342 16.5 7.69189C16.5 7.36037 16.6317 7.04243 16.8661 6.80801C17.1005 6.57359 17.4185 6.44189 17.75 6.44189ZM12.5 7.94189C13.8261 7.94189 15.0979 8.46868 16.0355 9.40636C16.9732 10.344 17.5 11.6158 17.5 12.9419C17.5 14.268 16.9732 15.5397 16.0355 16.4774C15.0979 17.4151 13.8261 17.9419 12.5 17.9419C11.1739 17.9419 9.90215 17.4151 8.96447 16.4774C8.02678 15.5397 7.5 14.268 7.5 12.9419C7.5 11.6158 8.02678 10.344 8.96447 9.40636C9.90215 8.46868 11.1739 7.94189 12.5 7.94189ZM12.5 9.94189C11.7044 9.94189 10.9413 10.258 10.3787 10.8206C9.81607 11.3832 9.5 12.1462 9.5 12.9419C9.5 13.7375 9.81607 14.5006 10.3787 15.0632C10.9413 15.6258 11.7044 15.9419 12.5 15.9419C13.2956 15.9419 14.0587 15.6258 14.6213 15.0632C15.1839 14.5006 15.5 13.7375 15.5 12.9419C15.5 12.1462 15.1839 11.3832 14.6213 10.8206C14.0587 10.258 13.2956 9.94189 12.5 9.94189Z" fill="white"/>
</svg>