<svg xmlns="http://www.w3.org/2000/svg" width="25" height="25" viewBox="0 0 25 25" fill="none">
  <path d="M17.5 14.0719V17.7689H15.357V14.3189C15.357 13.4529 15.047 12.8619 14.271 12.8619C13.679 12.8619 13.326 13.2599 13.171 13.6459C13.115 13.7839 13.1 13.9759 13.1 14.1679V17.7689H10.956C10.956 17.7689 10.985 11.9269 10.956 11.3219H13.1V12.2349L13.086 12.2559H13.1V12.2349C13.385 11.7949 13.893 11.1699 15.032 11.1699C16.442 11.1699 17.5 12.0919 17.5 14.0719ZM8.713 8.21289C7.98 8.21289 7.5 8.69489 7.5 9.32689C7.5 9.94689 7.966 10.4419 8.685 10.4419H8.699C9.447 10.4419 9.912 9.94589 9.912 9.32689C9.898 8.69489 9.447 8.21289 8.713 8.21289ZM7.627 17.7689H9.771V11.3219H7.627V17.7689Z" fill="white"/>
  <path d="M6.5 4.94189C5.96957 4.94189 5.46086 5.15261 5.08579 5.52768C4.71071 5.90275 4.5 6.41146 4.5 6.94189V18.9419C4.5 19.4723 4.71071 19.981 5.08579 20.3561C5.46086 20.7312 5.96957 20.9419 6.5 20.9419H18.5C19.0304 20.9419 19.5391 20.7312 19.9142 20.3561C20.2893 19.981 20.5 19.4723 20.5 18.9419V6.94189C20.5 6.41146 20.2893 5.90275 19.9142 5.52768C19.5391 5.15261 19.0304 4.94189 18.5 4.94189H6.5ZM6.5 2.94189H18.5C19.5609 2.94189 20.5783 3.36332 21.3284 4.11347C22.0786 4.86361 22.5 5.88103 22.5 6.94189V18.9419C22.5 20.0028 22.0786 21.0202 21.3284 21.7703C20.5783 22.5205 19.5609 22.9419 18.5 22.9419H6.5C5.43913 22.9419 4.42172 22.5205 3.67157 21.7703C2.92143 21.0202 2.5 20.0028 2.5 18.9419V6.94189C2.5 5.88103 2.92143 4.86361 3.67157 4.11347C4.42172 3.36332 5.43913 2.94189 6.5 2.94189Z" fill="white"/>
</svg>