<svg xmlns="http://www.w3.org/2000/svg" width="41" height="39" viewBox="0 0 41 39" fill="none">
  <path d="M37.2292 10.8808C37.8159 10.2334 38.1736 9.37869 38.1736 8.44268C38.1736 6.42682 36.5165 4.78682 34.4795 4.78682C32.7906 4.78682 31.3638 5.91478 30.9252 7.44924C30.5749 7.16546 30.1882 6.9298 29.7754 6.74854C30.364 6.10072 30.723 5.24455 30.723 4.30674C30.723 2.29088 29.0659 0.650879 27.0289 0.650879C24.992 0.650879 23.3349 2.29088 23.3349 4.30674C23.3349 5.24361 23.6931 6.099 24.2807 6.74658C23.3297 7.16143 22.5228 7.87002 21.9838 8.77393C21.4981 8.70908 21.003 8.67502 20.4999 8.67502C19.9969 8.67502 19.5016 8.70908 19.016 8.77393C18.477 7.87002 17.6701 7.16143 16.719 6.74658C17.3066 6.09893 17.6649 5.24354 17.6649 4.30674C17.6649 2.29088 16.0078 0.650879 13.9709 0.650879C11.9339 0.650879 10.2768 2.29088 10.2768 4.30674C10.2768 5.24455 10.6357 6.10072 11.2244 6.74854C10.8116 6.9298 10.4249 7.16546 10.0745 7.44924C9.63602 5.91478 8.20922 4.78674 6.52024 4.78674C4.48336 4.78674 2.82618 6.42674 2.82618 8.4426C2.82618 9.37861 3.18383 10.2333 3.77055 10.8807C2.87946 11.2658 2.12071 11.9035 1.58806 12.715C1.05541 13.5265 0.772206 14.4763 0.773442 15.4471V17.9203C0.773442 18.0757 0.835174 18.2248 0.945059 18.3347C1.05494 18.4445 1.20398 18.5063 1.35938 18.5063H9.42438C9.37203 18.9454 9.34571 19.3873 9.34555 19.8296C9.34555 25.9803 14.3495 30.9841 20.5001 30.9841C22.682 30.9841 24.7193 30.3538 26.4405 29.2665L34.5239 37.35C35.0059 37.8321 35.639 38.073 36.2722 38.073C36.9052 38.073 37.5384 37.8319 38.0204 37.35C38.4859 36.8846 38.7423 36.2637 38.7423 35.6017C38.7423 34.9398 38.486 34.3189 38.0204 33.8533L29.937 25.7699C31.0243 24.0488 31.6546 22.0116 31.6546 19.8296C31.6546 19.3818 31.6273 18.9404 31.5758 18.5063H39.6406C39.7176 18.5063 39.7938 18.4911 39.8649 18.4617C39.9359 18.4322 40.0005 18.3891 40.055 18.3347C40.1094 18.2802 40.1525 18.2157 40.182 18.1446C40.2114 18.0735 40.2266 17.9973 40.2266 17.9203V15.4471C40.2278 14.4763 39.9446 13.5265 39.4119 12.7149C38.8792 11.9034 38.1204 11.2658 37.2292 10.8808ZM34.4795 5.95869C35.8702 5.95869 37.0017 7.07299 37.0017 8.44268C37.0017 9.81236 35.8703 10.9267 34.4795 10.9267C33.0888 10.9267 31.9573 9.81236 31.9573 8.44268C31.9573 7.07299 33.0888 5.95869 34.4795 5.95869ZM27.029 1.82275C28.4197 1.82275 29.5512 2.93705 29.5512 4.30674C29.5512 5.67643 28.4198 6.7908 27.029 6.7908C25.6382 6.7908 24.5068 5.67643 24.5068 4.30674C24.5068 2.93705 25.6383 1.82275 27.029 1.82275ZM25.4253 7.59978C25.9259 7.83938 26.474 7.9634 27.029 7.96268C27.5844 7.96341 28.1329 7.83917 28.6338 7.59916C29.502 7.79658 30.2891 8.30674 30.8327 9.02393C30.9475 9.73182 31.2682 10.3723 31.7321 10.8833C30.726 11.3231 29.8852 12.0888 29.3521 13.051C27.8453 11.0879 25.7018 9.63822 23.2327 9.01408C23.7738 8.30361 24.5493 7.79783 25.4253 7.59978ZM13.971 1.82275C15.3617 1.82275 16.4932 2.93705 16.4932 4.30674C16.4932 5.67643 15.3618 6.7908 13.971 6.7908C12.5802 6.7908 11.4488 5.67643 11.4488 4.30674C11.4488 2.93705 12.5802 1.82275 13.971 1.82275ZM12.3662 7.59924C12.8671 7.8392 13.4156 7.96344 13.971 7.96275C14.5453 7.96275 15.0894 7.83229 15.5747 7.59986C16.4507 7.79791 17.2263 8.30377 17.7673 9.01432C15.2982 9.63846 13.1547 11.0881 11.6479 13.0512C11.1148 12.0889 10.2739 11.3233 9.26782 10.8835C9.73172 10.3725 10.0523 9.73205 10.1672 9.02416C10.711 8.30682 11.4981 7.79666 12.3662 7.59924ZM6.52039 5.95869C7.9111 5.95869 9.04258 7.07299 9.04258 8.44268C9.04258 9.81236 7.91118 10.9267 6.52039 10.9267C5.12961 10.9267 3.99821 9.81236 3.99821 8.44268C3.99821 7.07299 5.12969 5.95869 6.52039 5.95869ZM1.94532 17.3344V15.4471C1.94532 13.656 3.18352 12.1242 4.91547 11.7351C5.41641 11.9751 5.96493 12.0993 6.52039 12.0986C7.0756 12.0994 7.62387 11.9752 8.12461 11.7354C9.39633 12.0232 10.4454 12.9591 10.88 14.1896C10.3038 15.1675 9.88124 16.2281 9.62704 17.3343L1.94532 17.3344ZM37.5705 35.6017C37.5705 35.9506 37.436 36.2772 37.1918 36.5213C36.6847 37.0285 35.8596 37.0284 35.3525 36.5213L34.3764 35.5453L36.2157 33.706L37.1919 34.6821C37.436 34.9262 37.5705 35.2528 37.5705 35.6017ZM35.387 32.8773L33.5477 34.7165L27.4106 28.5794C28.0927 28.0395 28.71 27.4223 29.2499 26.7402L35.387 32.8773ZM20.5 29.8122C14.9956 29.8122 10.5173 25.3341 10.5173 19.8296C10.5173 14.3252 14.9956 9.84697 20.5 9.84697C26.0045 9.84697 30.4827 14.3252 30.4827 19.8296C30.4827 25.3341 26.0045 29.8122 20.5 29.8122ZM39.0547 17.3344H31.373C31.1188 16.2281 30.6962 15.1675 30.12 14.1896C30.5547 12.9591 31.6037 12.0233 32.8754 11.7355C33.3762 11.9753 33.9244 12.0994 34.4796 12.0987C35.0351 12.0994 35.5836 11.9752 36.0845 11.7352C37.8166 12.1242 39.0548 13.6561 39.0548 15.4471V17.3344H39.0547ZM20.5 11.0278C15.6466 11.0278 11.6982 14.9763 11.6982 19.8296C11.6982 24.6828 15.6467 28.6313 20.5 28.6313C25.3533 28.6313 29.3017 24.6828 29.3017 19.8296C29.3017 14.9763 25.3534 11.0278 20.5 11.0278ZM16.1238 26.076V25.6674C16.1238 23.9586 17.3034 22.4968 18.9545 22.1224C19.4224 22.3455 19.9467 22.4706 20.5 22.4706C21.0533 22.4706 21.5776 22.3455 22.0456 22.1224C23.6966 22.4968 24.8763 23.9586 24.8763 25.6674V26.076C23.6365 26.9472 22.127 27.4594 20.5001 27.4594C18.8731 27.4594 17.3636 26.9472 16.1238 26.076ZM20.5 21.2987C19.1753 21.2987 18.0977 20.2374 18.0977 18.9331C18.0977 17.6286 19.1753 16.5674 20.5 16.5674C21.8247 16.5674 22.9023 17.6286 22.9023 18.9331C22.9023 20.2374 21.8247 21.2987 20.5 21.2987ZM26.0136 25.0982C25.813 23.396 24.7238 21.9473 23.1809 21.2689C23.7363 20.6453 24.0742 19.8278 24.0742 18.9331C24.0742 16.9824 22.4709 15.3955 20.5 15.3955C18.5291 15.3955 16.9258 16.9824 16.9258 18.9331C16.9258 19.8278 17.2638 20.6453 17.8191 21.2689C16.2763 21.9473 15.187 23.396 14.9864 25.0982C13.6761 23.7276 12.8702 21.871 12.8702 19.8296C12.8702 15.6224 16.2929 12.1997 20.5001 12.1997C24.7072 12.1997 28.1299 15.6224 28.1299 19.8296C28.1298 21.871 27.3239 23.7276 26.0136 25.0982Z" fill="white"/>
</svg>