<svg xmlns="http://www.w3.org/2000/svg" width="39" height="40" viewBox="0 0 39 40" fill="none">
  <path d="M19.8642 18.4873H15.9449C15.7791 18.4873 15.6202 18.5531 15.503 18.6703C15.3858 18.7875 15.3199 18.9465 15.3199 19.1123V34.6846C15.3199 34.8504 15.3858 35.0093 15.503 35.1265C15.6202 35.2438 15.7791 35.3096 15.9449 35.3096H19.8642C20.03 35.3096 20.1889 35.2438 20.3061 35.1265C20.4234 35.0093 20.4892 34.8504 20.4892 34.6846V19.1123C20.4892 18.9465 20.4234 18.7875 20.3061 18.6703C20.1889 18.5531 20.03 18.4873 19.8642 18.4873ZM19.2392 34.0596H16.5699V19.7373H19.2392V34.0596ZM12.5866 22.6009H8.66725C8.50149 22.6009 8.34252 22.6668 8.22531 22.784C8.1081 22.9012 8.04225 23.0602 8.04225 23.2259V34.6846C8.04225 34.8504 8.1081 35.0093 8.22531 35.1265C8.34252 35.2438 8.50149 35.3096 8.66725 35.3096H12.5866C12.7524 35.3096 12.9114 35.2438 13.0286 35.1265C13.1458 35.0093 13.2116 34.8504 13.2116 34.6846V23.2259C13.2116 23.0602 13.1458 22.9012 13.0286 22.784C12.9114 22.6668 12.7524 22.6009 12.5866 22.6009ZM11.9616 34.0596H9.29225V23.8509H11.9616V34.0596ZM5.30889 26.5405H1.38952C1.22376 26.5405 1.06478 26.6063 0.947574 26.7235C0.830364 26.8407 0.764516 26.9997 0.764516 27.1655V34.6845C0.764516 34.8503 0.830364 35.0093 0.947574 35.1265C1.06478 35.2437 1.22376 35.3095 1.38952 35.3095H5.30881C5.47457 35.3095 5.63354 35.2437 5.75076 35.1265C5.86797 35.0093 5.93381 34.8503 5.93381 34.6845V27.1655C5.93383 27.0834 5.91768 27.0021 5.88629 26.9263C5.85489 26.8505 5.80886 26.7815 5.75083 26.7235C5.6928 26.6655 5.6239 26.6194 5.54807 26.588C5.47224 26.5566 5.39097 26.5405 5.30889 26.5405ZM4.68389 34.0595H2.01452V27.7905H4.68381L4.68389 34.0595ZM0.977016 24.0788C0.829248 24.0789 0.68622 24.0266 0.573322 23.9313C0.460423 23.8359 0.384955 23.7037 0.360315 23.558C0.335674 23.4123 0.363454 23.2626 0.438723 23.1354C0.513993 23.0082 0.631883 22.9118 0.771469 22.8634C10.1849 19.5851 18.4673 14.8186 25.4142 8.68758L24.0411 8.76211C23.8756 8.77109 23.7132 8.71395 23.5899 8.60326C23.4665 8.49257 23.3921 8.3374 23.3831 8.17188C23.3741 8.00635 23.4313 7.84404 23.542 7.72065C23.6526 7.59726 23.8078 7.52289 23.9733 7.51391L27.1079 7.34375C27.2003 7.33874 27.2927 7.35431 27.3783 7.38933C27.464 7.42436 27.5408 7.47798 27.6032 7.54631C27.6656 7.61464 27.7121 7.69597 27.7392 7.78444C27.7664 7.87291 27.7736 7.96631 27.7602 8.05789L27.3079 11.1642C27.2839 11.3282 27.1958 11.476 27.063 11.5751C26.9301 11.6742 26.7633 11.7165 26.5993 11.6927C26.4353 11.6688 26.2874 11.5807 26.1883 11.4478C26.0892 11.315 26.047 11.1482 26.0708 10.9841L26.2728 9.59687C19.1973 15.8491 10.7644 20.707 1.18241 24.0438C1.1164 24.067 1.04696 24.0788 0.977016 24.0788ZM28.4633 4.94719L30.0682 6.23711L29.528 8.22398C29.4401 8.54719 29.5585 8.8832 29.8294 9.08008C29.9656 9.17982 30.13 9.23371 30.2988 9.23398C30.4504 9.23398 30.6023 9.19016 30.7367 9.10219L32.4594 7.97445L34.1821 9.10219C34.4623 9.28555 34.8184 9.27695 35.0893 9.08016C35.3602 8.88328 35.4786 8.54734 35.3908 8.22398L34.8505 6.23719L36.4553 4.94734C36.7164 4.73758 36.8183 4.39617 36.7148 4.07758C36.6112 3.75898 36.3282 3.54258 35.9937 3.52633L33.9373 3.42602L33.2066 1.50117C33.0878 1.18836 32.7946 0.986328 32.4595 0.986328C32.1244 0.986328 31.8312 1.18836 31.7125 1.50109L30.9817 3.42594L28.9252 3.52617C28.5906 3.54242 28.3076 3.75883 28.2041 4.07742C28.1005 4.39609 28.2024 4.7375 28.4633 4.94719ZM31.3372 4.66016C31.4925 4.65263 31.6422 4.59995 31.768 4.50857C31.8938 4.41718 31.9902 4.29107 32.0454 4.1457L32.4594 3.05516L32.8736 4.14586C32.9288 4.29117 33.0252 4.41723 33.1509 4.50858C33.2767 4.59993 33.4264 4.65261 33.5816 4.66016L34.7468 4.71695L33.8376 5.44773C33.7164 5.54511 33.6262 5.67575 33.5782 5.82363C33.5301 5.97151 33.5263 6.1302 33.5671 6.28023L33.8731 7.40578L32.8969 6.76672C32.7668 6.68163 32.6147 6.63632 32.4593 6.63634C32.3039 6.63637 32.1518 6.68174 32.0218 6.76687L31.0458 7.40578L31.3519 6.28023C31.3927 6.13021 31.3889 5.97151 31.3408 5.82363C31.2928 5.67575 31.2026 5.54511 31.0814 5.44773L30.1722 4.71695L31.3372 4.66016ZM38.2472 29.2074L37.1861 28.7989C37.0252 28.2337 36.7993 27.689 36.5131 27.1757L36.975 26.1359C37.0263 26.0205 37.0414 25.8923 37.0183 25.7681C36.9952 25.6439 36.9351 25.5296 36.8458 25.4403L35.2745 23.8691C35.2094 23.8042 35.1308 23.7544 35.0442 23.7235V11.7111C35.0442 11.5453 34.9784 11.3864 34.8611 11.2692C34.7439 11.1519 34.585 11.0861 34.4192 11.0861H30.4998C30.3341 11.0861 30.1751 11.1519 30.0579 11.2692C29.9407 11.3864 29.8748 11.5453 29.8748 11.7111V22.0671H28.7021C28.5758 22.0671 28.4525 22.1054 28.3483 22.1769C28.2442 22.2484 28.1642 22.3497 28.1188 22.4676L27.7668 23.3822V15.4117C27.7668 15.246 27.7009 15.087 27.5837 14.9698C27.4665 14.8526 27.3075 14.7867 27.1418 14.7867H23.2224C23.0566 14.7867 22.8977 14.8526 22.7805 14.9698C22.6633 15.087 22.5974 15.246 22.5974 15.4117V28.3124C22.5396 28.4728 22.4872 28.635 22.4403 28.7989L21.379 29.2074C21.2612 29.2528 21.1598 29.3328 21.0883 29.4369C21.0168 29.541 20.9786 29.6644 20.9786 29.7907V32.0127C20.9786 32.139 21.0168 32.2624 21.0883 32.3665C21.1598 32.4706 21.2612 32.5506 21.379 32.596L22.4401 33.0045C22.4871 33.1685 22.5395 33.331 22.5974 33.4916V34.6845C22.5974 34.7844 22.6214 34.8829 22.6673 34.9716C22.7133 35.0603 22.7799 35.1366 22.8615 35.1942L22.6512 35.6675C22.6 35.7829 22.5849 35.9112 22.6079 36.0354C22.631 36.1595 22.6911 36.2738 22.7805 36.3631L24.3518 37.9344C24.4411 38.0237 24.5554 38.0839 24.6795 38.1069C24.8037 38.13 24.932 38.1149 25.0474 38.0637L26.0876 37.6016C26.6008 37.8877 27.1453 38.1135 27.7103 38.2744L28.1188 39.3358C28.1642 39.4537 28.2442 39.555 28.3483 39.6265C28.4524 39.698 28.5758 39.7363 28.7021 39.7362H30.9242C31.0505 39.7363 31.1738 39.698 31.278 39.6265C31.3821 39.555 31.4621 39.4537 31.5075 39.3358L31.9158 38.2747C32.4811 38.1138 33.0258 37.888 33.539 37.6017L34.5789 38.0635C34.6943 38.1148 34.8226 38.1299 34.9468 38.1069C35.0709 38.0838 35.1852 38.0236 35.2745 37.9343L36.8458 36.363C36.9351 36.2737 36.9952 36.1595 37.0183 36.0353C37.0414 35.9111 37.0263 35.7828 36.975 35.6674L36.513 34.6272C36.799 34.1141 37.0248 33.5696 37.1857 33.0045L38.2471 32.596C38.365 32.5507 38.4663 32.4706 38.5378 32.3665C38.6093 32.2624 38.6476 32.139 38.6476 32.0127V29.7907C38.6476 29.6644 38.6093 29.5411 38.5379 29.4369C38.4664 29.3328 38.365 29.2528 38.2472 29.2074ZM33.7941 12.3361V24.0883L33.5386 24.2018C33.0255 23.9157 32.4809 23.69 31.9159 23.5291L31.5074 22.4676C31.4744 22.3822 31.423 22.3051 31.3569 22.2417C31.2908 22.1784 31.2116 22.1304 31.1248 22.1011V12.3361H33.7941ZM26.5167 16.0367V23.9807C26.3713 24.0499 26.2282 24.1236 26.0875 24.2019L25.0472 23.7398C24.9318 23.6886 24.8036 23.6735 24.6794 23.6966C24.5552 23.7197 24.4409 23.7798 24.3516 23.8691L23.8473 24.3734V16.0367H26.5167ZM37.3976 31.5837L36.4377 31.9531C36.343 31.9896 36.2585 32.0486 36.1917 32.125C36.1249 32.2014 36.0777 32.293 36.0542 32.3917C35.8971 33.0519 35.6356 33.6827 35.2795 34.2603C35.2263 34.3468 35.1949 34.4449 35.1881 34.5462C35.1813 34.6474 35.1993 34.7489 35.2405 34.8416L35.6584 35.7826L34.694 36.747L33.7535 36.3292C33.6607 36.288 33.5593 36.27 33.458 36.2768C33.3567 36.2836 33.2585 36.315 33.1721 36.3683C32.5944 36.7245 31.9634 36.986 31.3031 37.143C31.2043 37.1665 31.1128 37.2137 31.0363 37.2805C30.9599 37.3474 30.9009 37.4318 30.8644 37.5266L30.495 38.4863H29.1312L28.7617 37.5263C28.7253 37.4316 28.6663 37.3471 28.5898 37.2803C28.5134 37.2135 28.4219 37.1663 28.3231 37.1428C27.663 36.9858 27.0322 36.7242 26.4546 36.3681C26.3681 36.3149 26.27 36.2836 26.1687 36.2768C26.0674 36.27 25.966 36.2879 25.8732 36.3291L24.9323 36.747L23.9678 35.7827L24.3855 34.8422C24.4267 34.7494 24.4447 34.648 24.4379 34.5467C24.4312 34.4454 24.3998 34.3472 24.3465 34.2608C23.9903 33.683 23.7288 33.052 23.5717 32.3916C23.5482 32.2929 23.501 32.2013 23.4342 32.1249C23.3674 32.0485 23.2829 31.9895 23.1882 31.953L22.2286 31.5837V30.2198L23.1884 29.8504C23.2832 29.8139 23.3676 29.7549 23.4344 29.6785C23.5012 29.6021 23.5484 29.5106 23.5719 29.4118C23.729 28.7516 23.9906 28.1207 24.3467 27.543C24.3999 27.4566 24.4313 27.3585 24.4381 27.2572C24.4449 27.1559 24.4269 27.0544 24.3857 26.9616L23.9679 26.0209L24.9323 25.0564L25.8733 25.4744C25.966 25.5156 26.0675 25.5335 26.1688 25.5267C26.2701 25.5199 26.3682 25.4886 26.4546 25.4353C27.0322 25.0792 27.663 24.8177 28.3232 24.6606C28.4219 24.6371 28.5135 24.5899 28.5899 24.5231C28.6663 24.4563 28.7253 24.3718 28.7618 24.2771L29.1313 23.3171H30.4951L30.8647 24.2771C30.9011 24.3719 30.9601 24.4563 31.0365 24.5231C31.113 24.5899 31.2045 24.6371 31.3033 24.6606C31.9634 24.8177 32.5942 25.0792 33.1719 25.4353C33.2583 25.4885 33.3564 25.5199 33.4577 25.5267C33.559 25.5335 33.6604 25.5155 33.7532 25.4744L34.6942 25.0564L35.6586 26.0208L35.2408 26.9613C35.1996 27.0541 35.1816 27.1556 35.1884 27.2569C35.1953 27.3582 35.2266 27.4564 35.2799 27.5428C35.6361 28.1206 35.8977 28.7516 36.0548 29.4119C36.0782 29.5106 36.1254 29.6022 36.1923 29.6786C36.2591 29.755 36.3435 29.814 36.4383 29.8505L37.3979 30.2199V31.5837H37.3976ZM29.813 26.4015C27.3315 26.4015 25.3127 28.4203 25.3127 30.9018C25.3127 33.3832 27.3315 35.402 29.813 35.402C32.2945 35.402 34.3133 33.3832 34.3133 30.9018C34.3133 28.4203 32.2945 26.4015 29.813 26.4015ZM29.813 34.152C28.0208 34.152 26.5627 32.694 26.5627 30.9018C26.5627 29.1096 28.0208 27.6515 29.813 27.6515C31.6053 27.6515 33.0633 29.1095 33.0633 30.9018C33.0633 32.6939 31.6053 34.152 29.813 34.152Z" fill="white"/>
</svg>